IKResults
version=1
nRows=24
nColumns=24
inDegrees=yes

Units are S.I. units (second, meters, Newtons, ...)
If the header above contains a line with 'inDegrees', this indicates whether rotational values are in degrees (yes) or radians (no).

endheader
time	pelvis_tilt	pelvis_list	pelvis_rotation	pelvis_tx	pelvis_ty	pelvis_tz	hip_flexion_r	hip_adduction_r	hip_rotation_r	knee_angle_r	ankle_angle_r	subtalar_angle_r	mtp_angle_r	hip_flexion_l	hip_adduction_l	hip_rotation_l	knee_angle_l	ankle_angle_l	subtalar_angle_l	mtp_angle_l	lumbar_extension	lumbar_bending	lumbar_rotation
      4.37000000	      3.42328163	     -9.03455958	    -95.76466120	     -0.21766474	      0.94945107	     -3.43366748	     -6.01921309	    -11.47673278	     -5.79205549	    -53.21849702	    -24.45823700	     -0.80783018	      0.00000000	     13.29637376	      4.91954462	     -3.93950909	    -17.67572365	     -4.08625086	     -8.16331836	      0.00000000	    -30.50203526	     -5.17918602	      6.77030075
      4.38000000	      3.32054125	     -9.04983060	    -96.00527549	     -0.21728658	      0.95119916	     -3.42434944	     -4.65957623	    -11.40748418	     -5.16580409	    -54.70155811	    -22.83759649	     -1.75809532	      0.00000000	     12.71207631	      4.97103844	     -3.77836277	    -17.80905163	     -3.75640477	     -8.66371006	      0.00000000	    -30.53077702	     -5.10254930	      6.75489489
      4.39000000	      3.15594341	     -9.01222599	    -96.31714388	     -0.21679672	      0.95352532	     -3.41184197	     -2.77899400	    -11.18935172	     -4.26542466	    -56.50296640	    -20.66644791	     -2.77256976	      0.00000000	     11.90571374	      5.03595093	     -3.43044006	    -17.84581214	     -3.33788401	     -9.49703949	      0.00000000	    -30.51616669	     -4.95419925	      6.74485648
      4.40000000	      2.98339348	     -8.97884759	    -96.67217966	     -0.21631362	      0.95640596	     -3.39748028	     -0.67675539	    -10.85471133	     -3.21365545	    -58.24167454	    -18.33259302	     -3.77911634	      0.00000000	     10.69118540	      5.12998119	     -3.09851892	    -17.37258589	     -2.99790235	    -10.39262587	      0.00000000	    -30.52214685	     -4.80770170	      6.74105837
      4.41000000	      2.87462845	     -9.02604557	    -97.03565150	     -0.21583251	      0.95966814	     -3.38237169	      1.36604234	    -10.55596697	     -2.19674365	    -59.67299688	    -16.11440133	     -4.53264494	      0.00000000	      8.96754782	      5.33844620	     -2.72163214	    -16.18846731	     -2.88590288	    -11.47585112	      0.00000000	    -30.61244339	     -4.72866401	      6.74911728
      4.42000000	      2.81963568	     -9.10691986	    -97.40713585	     -0.21540948	      0.96311455	     -3.36722478	      3.28547876	    -10.35067564	     -1.35499864	    -60.67423791	    -14.18190134	     -4.94402382	      0.00000000	      6.70618455	      5.59632878	     -2.54470408	    -14.04070895	     -3.10833090	    -12.41054491	      0.00000000	    -30.73126756	     -4.70698328	      6.74426423
      4.43000000	      2.81703736	     -9.47154400	    -97.80374938	     -0.21513317	      0.96701333	     -3.35196594	      4.70077075	    -10.28983039	     -0.70724927	    -61.13433138	    -12.64474986	     -5.15069109	      0.00000000	      3.14259472	      5.96141986	     -2.60919258	     -9.98773134	     -4.08297728	    -13.22575432	      0.00000000	    -31.11038593	     -4.79367590	      6.70309824
      4.44000000	      2.50681679	    -10.36131060	    -98.39074364	     -0.21553768	      0.97131722	     -3.33600805	      5.20941117	     -9.96716144	     -0.15221988	    -60.98995785	    -11.36209766	     -5.30974862	      0.00000000	     -3.85115642	      6.21986626	     -3.83313620	     -0.65857830	     -7.40891484	    -13.11761393	      0.00000000	    -31.92893792	     -4.77339778	      6.64502771
      4.45000000	      1.44749767	    -10.62877869	    -98.87197305	     -0.21628931	      0.97371962	     -3.32076202	      6.17453658	     -8.67495905	     -0.01162380	    -60.62440620	    -10.25252053	     -5.58693004	      0.00000000	     -8.83621783	      5.68788826	     -5.83052679	      5.97118756	     -9.47297998	    -11.12227642	      0.00000000	    -32.16254493	     -3.87253454	      6.92379019
      4.46000000	      0.57132933	    -10.51222407	    -99.12159692	     -0.21654877	      0.97542279	     -3.30630382	      7.53528880	     -7.51522546	     -0.10910425	    -60.04941577	     -9.18542834	     -5.71191851	      0.00000000	    -11.33053683	      5.16363677	     -6.79626372	      8.82045717	    -10.06454373	    -10.10890804	      0.00000000	    -32.08194069	     -2.98446415	      6.96372611
      4.47000000	     -0.14779639	    -10.28674506	    -99.26294918	     -0.21664336	      0.97687385	     -3.29213042	      8.94240141	     -6.43719506	     -0.23177211	    -59.17760629	     -8.06929628	     -5.72727095	      0.00000000	    -13.06720337	      4.73520074	     -7.69820669	     10.55396811	    -10.12229077	     -8.95777226	      0.00000000	    -31.91851709	     -2.17790122	      6.97290629
      4.48000000	     -0.76127098	    -10.05259090	    -99.27618544	     -0.21659734	      0.97815274	     -3.27807373	     10.24531569	     -5.42699282	     -0.41752666	    -57.97557285	     -6.85339243	     -5.57809840	      0.00000000	    -14.47510673	      4.34924479	     -8.26055910	     11.74338147	    -10.02304088	     -8.14840108	      0.00000000	    -31.76268066	     -1.42117460	      6.86253300
      4.49000000	     -1.26185864	     -9.78753849	    -99.18795747	     -0.21644870	      0.97912665	     -3.26411227	     11.48442580	     -4.51673736	     -0.65149875	    -56.46768784	     -5.53001329	     -5.22094245	      0.00000000	    -15.70721103	      4.02715987	     -8.53228580	     12.72843138	     -9.96489740	     -7.71935937	      0.00000000	    -31.57803033	     -0.73426450	      6.65871998
      4.50000000	     -1.77660985	     -9.59909316	    -98.98936816	     -0.21629270	      0.97998258	     -3.25015268	     12.45229807	     -3.60308520	     -1.00699932	    -54.54709002	     -4.27653790	     -4.87958118	      0.00000000	    -16.98843714	      3.68016895	     -8.90759555	     13.66326245	     -9.77974536	     -6.92426001	      0.00000000	    -31.49098330	     -0.01712483	      6.31460627
      4.51000000	     -2.16524998	     -9.38486704	    -98.73203065	     -0.21605648	      0.98044213	     -3.23630647	     13.35184688	     -2.87722883	     -1.45228329	    -52.32074173	     -3.09709185	     -4.35417412	      0.00000000	    -18.17533131	      3.42089831	     -9.04724587	     14.53691156	     -9.68541334	     -6.46186928	      0.00000000	    -31.37746468	      0.59935504	      5.95374957
      4.52000000	     -2.44766807	     -9.18269271	    -98.44179228	     -0.21577633	      0.98057561	     -3.22253514	     14.11085752	     -2.33369200	     -2.00107210	    -49.75483343	     -2.10465655	     -3.71611711	      0.00000000	    -19.30634194	      3.24236251	     -9.05960877	     15.32523284	     -9.59359499	     -6.16140274	      0.00000000	    -31.28241479	      1.12186917	      5.62785612
      4.53000000	     -2.68610012	     -8.99753393	    -98.09218072	     -0.21550078	      0.98044190	     -3.20877825	     14.65890630	     -1.86311722	     -2.64269270	    -46.77351262	     -1.45062027	     -3.28935650	      0.00000000	    -20.44743989	      3.11592154	     -9.31911093	     16.12822797	     -9.40654037	     -5.30691588	      0.00000000	    -31.20938034	      1.57207634	      4.98139139
      4.54000000	     -2.85112392	     -8.85756756	    -97.73772606	     -0.21523223	      0.98007211	     -3.19501361	     14.96833310	     -1.50337909	     -3.33470353	    -43.37887013	     -1.07586518	     -2.95876575	      0.00000000	    -21.56409831	      3.00729132	     -9.22789103	     16.79725256	     -9.24780387	     -5.00866903	      0.00000000	    -31.19248029	      1.97585190	      4.61345492
      4.55000000	     -2.91652761	     -8.80338518	    -97.40167083	     -0.21498073	      0.97954641	     -3.18120738	     14.97742927	     -1.29629240	     -4.10943334	    -39.54524378	     -0.90708674	     -2.58605519	      0.00000000	    -22.68352619	      2.99135845	     -9.09029057	     17.30514828	     -8.98798559	     -4.73398752	      0.00000000	    -31.27070807	      2.26466309	      4.33179612
      4.56000000	     -3.00163644	     -8.70209038	    -97.11935604	     -0.21492192	      0.97859189	     -3.16740992	     14.77938859	     -0.99327155	     -4.82186723	    -35.18911969	     -1.01935977	     -2.51067612	      0.00000000	    -23.88864473	      3.02788055	     -9.36728063	     18.07379680	     -8.79485767	     -3.91547778	      0.00000000	    -31.30131470	      2.49358751	      3.75740617
      4.57000000	     -2.95622872	     -8.71198881	    -96.92100736	     -0.21491715	      0.97751173	     -3.15355318	     14.19606039	     -0.83867973	     -5.57803063	    -30.28035869	     -1.24721734	     -2.14611021	      0.00000000	    -25.06114623	      3.16919264	     -9.33597220	     18.54119242	     -8.47196675	     -3.60574309	      0.00000000	    -31.45287697	      2.57552427	      3.50483132
      4.58000000	     -2.86390954	     -8.70206187	    -96.75069775	     -0.21501181	      0.97595678	     -3.13959896	     13.31723716	     -0.66906088	     -6.37555634	    -24.74045477	     -1.73496674	     -1.73197626	      0.00000000	    -26.33654579	      3.45469491	     -9.76867663	     19.25689784	     -8.18556903	     -2.56071939	      0.00000000	    -31.55897154	      2.56213622	      3.02060615
      4.59000000	     -2.56756341	     -8.77983571	    -96.63686942	     -0.21508110	      0.97402620	     -3.12540708	     12.07415932	     -0.69709758	     -7.35803669	    -18.63487737	     -2.38395114	     -0.69684788	      0.00000000	    -27.61537768	      3.88781880	     -9.63189496	     19.76670261	     -7.88106648	     -2.37892189	      0.00000000	    -31.70016406	      2.36043939	      2.86817205
      4.60000000	     -2.03279771	     -8.92957906	    -96.54890574	     -0.21512755	      0.97146028	     -3.11083922	     10.60571086	     -0.92780429	     -8.66066844	    -12.20255205	     -3.21163648	      1.07936916	      0.00000000	    -29.01327792	      4.61290405	     -9.52829274	     20.33857043	     -7.57436302	     -2.02624864	      0.00000000	    -31.80893121	      1.90339158	      2.64789655
